<?xml version="1.0" encoding="UTF-8"?>
<svg width="512pt" height="512pt" version="1.1" viewBox="0 0 512 512" xmlns="http://www.w3.org/2000/svg">
 <g fill="#0bafb9">
  <path d="m488.45 171.01c-2.5586-7.168-4.6094-13.824-7.168-20.48-9.7266-29.184-17.922-54.785-39.426-65.535-13.824-6.6562-31.23-6.1445-53.762 1.5352-4.6094 1.5352-8.7031 3.5859-12.801 5.6328h-103.93c-4.6094-2.0469-8.7031-4.0977-12.801-5.6328-22.016-7.6797-39.938-8.1914-53.762-1.5352-21.504 10.754-29.695 35.84-39.426 65.535-2.0469 6.6562-4.6094 13.824-6.6562 20.48-3.5859 10.754-6.6562 21.504-8.1914 31.742h19.969c1.5352-8.1914 4.0977-16.895 7.168-25.09 2.5586-7.168 4.6094-14.336 7.168-20.992 8.1914-25.09 15.359-46.594 29.184-53.762 8.7031-4.0977 21.504-3.5859 38.398 2.5586 4.0977 1.5352 8.1914 3.0703 12.801 5.6328 1.5352 0.51172 3.0703 1.0234 4.6094 1.0234h108.54c1.5352 0 3.0703-0.51172 4.6094-1.0234 4.6094-2.0469 8.7031-4.0977 12.801-5.6328 16.895-6.1445 29.695-6.6562 38.398-2.5586 13.824 7.168 20.992 28.672 29.184 53.762 2.0469 6.6562 4.6094 13.824 7.168 20.992 6.1445 17.922 9.7266 36.352 9.7266 52.734 0 5.6328-0.51172 11.266-1.0234 16.895-3.0703 17.922-10.238 30.207-20.48 33.793-10.238 3.5859-24.062-1.0234-37.375-13.312-15.359-13.824-28.672-34.816-37.375-59.391-1.5352-4.0977-5.1211-6.6562-9.2148-6.6562l-52.223 0.003906c8.1914 5.1211 14.336 11.777 19.969 19.969h24.574c9.7266 24.574 24.062 46.078 40.449 60.93 14.336 12.801 29.184 19.457 43.008 19.457 4.6094 0 9.7266-1.0234 13.824-2.5586 17.922-6.1445 29.695-24.062 33.793-49.664 3.0703-23.043 0-51.203-9.7266-78.852z"/>
  <path d="m420.35 135.17c0 6.7852-5.5 12.289-12.289 12.289-6.7852 0-12.285-5.5039-12.285-12.289 0-6.7852 5.5-12.289 12.285-12.289 6.7891 0 12.289 5.5039 12.289 12.289"/>
  <path d="m444.93 159.74c0 6.7891-5.5039 12.289-12.289 12.289s-12.289-5.5-12.289-12.289c0-6.7852 5.5039-12.285 12.289-12.285s12.289 5.5 12.289 12.285"/>
  <path d="m395.78 159.74c0 6.7891-5.5039 12.289-12.289 12.289-6.7852 0-12.289-5.5-12.289-12.289 0-6.7852 5.5039-12.285 12.289-12.285 6.7852 0 12.289 5.5 12.289 12.285"/>
  <path d="m420.35 184.32c0 6.7852-5.5 12.289-12.289 12.289-6.7852 0-12.285-5.5039-12.285-12.289 0-6.7852 5.5-12.289 12.285-12.289 6.7891 0 12.289 5.5039 12.289 12.289"/>
  <path d="m247.81 128h-14.336c-1.5352 0-2.5586 1.0234-2.5586 2.5586v18.945h-18.945c-1.5352 0-2.5586 1.0234-2.5586 2.5586v14.336c0 1.5352 1.0234 2.5586 2.5586 2.5586l18.43 0.003907v18.945c0 1.5352 1.0234 2.5586 2.5586 2.5586h14.336c1.5352 0 2.5586-1.0234 2.5586-2.5586v-18.945h18.945c1.5352 0 2.5586-1.0234 2.5586-2.5586v-14.336c0-1.5352-1.0234-2.5586-2.5586-2.5586h-18.945v-18.945c0.51563-1.5391-1.0195-2.5625-2.043-2.5625z"/>
  <path d="m346.62 280.06c-9.7305-29.184-17.922-54.781-39.426-65.535-13.824-6.6562-31.23-6.1445-53.762 1.5352-4.6094 1.5352-8.7031 3.5859-12.801 5.6328h-103.93c-4.6094-2.0469-8.7031-4.0977-12.801-5.6328-22.016-7.6797-39.938-8.1914-53.762-1.5352-22.012 10.754-30.203 36.352-39.422 65.535-2.0469 6.6562-4.6094 13.824-6.6562 20.48-9.7266 27.648-13.312 55.297-9.2148 78.848 4.0977 25.602 15.871 43.008 33.793 49.664 17.922 6.1445 37.887 0 57.344-16.895 16.383-14.848 30.207-36.352 40.449-60.93h86.016c9.7266 25.09 24.062 46.078 40.449 60.93 14.336 12.801 29.184 19.457 43.008 19.457 4.6094 0 9.7266-1.0234 14.336-2.5586 17.922-6.1445 29.695-24.062 33.793-49.664 3.5859-23.551 0.51172-51.711-9.2148-78.848-3.5898-6.6602-6.1484-13.828-8.1953-20.484zm-3.0742 96.77c-3.0703 17.922-10.238 30.207-20.992 33.793-10.238 3.5859-24.062-1.0234-37.375-13.312-15.359-13.824-28.672-34.816-37.375-59.391-1.5352-4.0977-5.1211-6.6562-9.2148-6.6562h-99.84c-4.0977 0-8.1914 3.0703-9.2148 7.168-8.7031 24.574-22.016 45.566-37.375 58.879-13.312 12.289-27.137 16.895-37.375 13.312-10.238-3.5859-17.922-15.871-20.992-33.793-3.0703-20.48 0-45.055 8.7031-69.121 2.5586-7.168 5.1211-14.336 7.168-20.992 8.1914-25.09 15.359-46.594 29.184-53.762 8.7031-4.0977 21.504-3.5859 38.398 2.5586 4.0977 1.5352 8.1914 3.0703 12.801 5.6328 1.5352 0.51172 3.0703 1.0234 4.6094 1.0234h108.54c1.5352 0 3.0703-0.51172 4.6094-1.0234 4.6094-2.0469 8.7031-4.0977 12.801-5.6328 16.895-6.1445 29.695-6.6562 38.398-2.5586 13.824 7.168 20.992 28.672 29.184 53.762 2.0469 6.6562 4.6094 13.824 7.168 20.992 8.1875 24.066 11.262 48.641 8.1875 69.121z"/>
  <path d="m285.7 264.7c0 6.7891-5.5 12.289-12.289 12.289-6.7852 0-12.285-5.5-12.285-12.289 0-6.7852 5.5-12.289 12.285-12.289 6.7891 0 12.289 5.5039 12.289 12.289"/>
  <path d="m310.27 289.28c0 6.7852-5.5039 12.285-12.289 12.285s-12.289-5.5-12.289-12.285c0-6.7891 5.5039-12.289 12.289-12.289s12.289 5.5 12.289 12.289"/>
  <path d="m260.61 289.28c0 6.7852-5.5039 12.285-12.289 12.285-6.7852 0-12.289-5.5-12.289-12.285 0-6.7891 5.5039-12.289 12.289-12.289 6.7852 0 12.289 5.5 12.289 12.289"/>
  <path d="m285.7 313.86c0 6.7852-5.5 12.289-12.289 12.289-6.7852 0-12.285-5.5039-12.285-12.289 0-6.7852 5.5-12.289 12.285-12.289 6.7891 0 12.289 5.5039 12.289 12.289"/>
  <path d="m134.66 279.55h-18.945v-18.945c0-1.5352-1.0234-2.5586-2.5586-2.5586h-14.336c-1.5352 0-2.5586 1.0234-2.5586 2.5586v18.945h-19.457c-1.5352 0-2.5586 1.0234-2.5586 2.5586v14.336c0 1.5352 1.0234 2.5586 2.5586 2.5586h18.945v18.945c0 1.5352 1.0234 2.5586 2.5586 2.5586l14.336 0.003907c1.5352 0 2.5586-1.0234 2.5586-2.5586v-18.945h18.945c1.5352 0 2.5586-1.0234 2.5586-2.5586v-14.336c0.51172-1.5391-0.51172-2.5625-2.0469-2.5625z"/>
 </g>
</svg>
