<?xml version="1.0" encoding="UTF-8"?>
<svg width="512pt" height="512pt" version="1.1" viewBox="0 0 512 512" xmlns="http://www.w3.org/2000/svg">
 <path d="m426.55 289.12c45.781-58.652 41.836-141.86 41.629-145.65-0.34766-6.3398-5.4102-11.398-11.75-11.75-3.25-0.16797-65.484-3.125-120.17 25.332-13.176-68.664-69.258-119.64-71.949-122.04-4.7305-4.2344-11.887-4.2344-16.613 0-2.6914 2.4062-58.77 53.379-71.949 122.04-54.68-28.453-116.91-25.5-120.17-25.332-6.3398 0.35156-11.398 5.4102-11.75 11.75-0.21094 3.7852-4.1562 87 41.625 145.65-29.32 14.344-48.66 33.219-49.941 34.492-2.3555 2.3398-3.6797 5.5234-3.6797 8.8398 0 3.3164 1.3242 6.5 3.6797 8.8398 2.0859 2.0664 51.758 50.664 114.63 50.664 17.254 0 33.48-3.6953 48.035-9.0469-1.0586 4.6055-1.6797 9.3555-1.6797 14.238 0 45.098 50.41 79.473 52.559 80.91 2.1016 1.4102 4.5234 2.1172 6.9453 2.1172s4.8438-0.70312 6.9453-2.1172c2.1445-1.4414 52.559-35.816 52.559-80.91 0-4.875-0.61719-9.6172-1.6719-14.215 14.551 5.3477 30.785 9.0234 48.027 9.0234 62.875 0 112.55-48.594 114.63-50.664 2.3555-2.3398 3.6797-5.5234 3.6797-8.8398 0-3.3164-1.3242-6.5-3.6797-8.8398-1.2812-1.2695-20.621-20.148-49.941-34.492zm16.781-132.54c-0.71094 25.93-6.7031 88.875-46.297 128.47-34.273 34.273-86.297 43.348-116.4 45.633-4.4141-4.1562-8.4492-7.5078-11.566-9.9414 2.0625-29.816 10.82-82.926 45.773-117.88 39.48-39.477 102.55-45.535 128.49-46.281zm-187.32-94.73c16.328 17.246 51.391 59.602 57.195 109.62-5.5547 4.1602-10.918 8.7188-15.98 13.781-20.621 20.621-33.359 46.02-41.23 70.438-7.8711-24.418-20.605-49.816-41.227-70.438-5.0625-5.0625-10.422-9.6172-15.973-13.777 5.8203-49.891 40.898-92.348 57.215-109.62zm-187.33 94.73c25.969 0.75 89.012 6.8164 128.47 46.281h0.003906c34.855 34.855 43.645 88.059 45.742 117.91-3.1133 2.4336-7.1367 5.7734-11.535 9.918-30.113-2.2891-82.133-11.363-116.4-45.633-39.465-39.469-45.527-102.51-46.277-128.47zm81.453 210.46c-37.426 0-70.648-21.891-86.773-34.594 8.8711-6.9883 22.973-16.715 40.043-24.09 30.855 27.496 70.426 39.375 101.64 44.41-15.723 7.8789-34.684 14.273-54.906 14.273zm105.84 85.125c-13.625-11.078-34.578-32.848-34.578-55.027 0-22.066 20.992-43.906 34.609-55.027 13.625 11.078 34.578 32.848 34.578 55.027 0 22.07-20.992 43.906-34.609 55.027zm105.88-85.125c-20.234 0-39.211-6.4062-54.941-14.289 31.215-5.0312 70.75-16.914 101.62-44.414 17.094 7.3789 31.211 17.117 40.09 24.109-16.129 12.707-49.352 34.594-86.773 34.594z" fill="#0bafb9"/>
</svg>
