<?xml version="1.0" encoding="UTF-8"?>
<svg width="512pt" height="512pt" version="1.1" viewBox="0 0 512 512" xmlns="http://www.w3.org/2000/svg" fill="#0CAFBA">
 <g>
  <path d="m354.3 258.56h-197.63c-2.5586 0-5.1211-1.5352-6.6562-4.0977-1.5352-2.5586-1.5352-5.1211 0-7.6797l98.816-171.01c1.5352-2.5586 4.0977-3.5859 6.6562-3.5859 2.5586 0 5.1211 1.5352 6.6562 3.5859l98.816 171.01c1.5352 2.5586 1.5352 5.1211 0 7.6797-1.5352 2.5625-4.0977 4.0977-6.6562 4.0977zm-184.32-15.359h171.01l-85.504-147.97z"/>
  <path d="m419.33 439.81h-154.11c-4.0977 0-7.6797-3.5859-7.6797-7.6797v-154.11c0-4.0977 3.5859-7.6797 7.6797-7.6797h154.11c4.0977 0 7.6797 3.5859 7.6797 7.6797v154.11c0 4.0938-3.582 7.6797-7.6797 7.6797zm-146.43-15.359h138.75v-138.75h-138.75z"/>
  <path d="m156.67 439.3c-46.594 0-84.48-37.887-84.48-84.48s37.887-84.48 84.48-84.48 84.48 37.887 84.48 84.48c0 46.59-37.887 84.48-84.48 84.48zm0-153.6c-37.887 0-69.121 31.23-69.121 69.121 0 37.887 31.23 69.121 69.121 69.121 37.887 0 69.121-31.23 69.121-69.121 0-37.887-31.234-69.121-69.121-69.121z"/>
 </g>
</svg>
