<svg aria-labelledby="chart-title-graph-div chart-desc-graph-div" role="img" viewBox="-371 -10 871 1887" style="max-width: 100%;" height="100%" xmlns="http://www.w3.org/2000/svg" width="100%" id="graph-div" xmlns:xlink="http://www.w3.org/1999/xlink"><style>@import url("https://cdnjs.cloudflare.com/ajax/libs/font-awesome/6.2.0/css/all.min.css");'</style><title id="chart-title-graph-div"></title><desc id="chart-desc-graph-div"></desc><style>#graph-div {font-family:"trebuchet ms",verdana,arial,sans-serif;font-size:16px;fill:#333;}#graph-div .error-icon{fill:#552222;}#graph-div .error-text{fill:#552222;stroke:#552222;}#graph-div .edge-thickness-normal{stroke-width:2px;}#graph-div .edge-thickness-thick{stroke-width:3.5px;}#graph-div .edge-pattern-solid{stroke-dasharray:0;}#graph-div .edge-pattern-dashed{stroke-dasharray:3;}#graph-div .edge-pattern-dotted{stroke-dasharray:2;}#graph-div .marker{fill:#333333;stroke:#333333;}#graph-div .marker.cross{stroke:#333333;}#graph-div svg{font-family:"trebuchet ms",verdana,arial,sans-serif;font-size:16px;}#graph-div .actor{stroke:hsl(259.6261682243, 59.7765363128%, 87.9019607843%);fill:#ECECFF;}#graph-div text.actor&gt;tspan{fill:black;stroke:none;}#graph-div .actor-line{stroke:grey;}#graph-div .messageLine0{stroke-width:1.5;stroke-dasharray:none;stroke:#333;}#graph-div .messageLine1{stroke-width:1.5;stroke-dasharray:2,2;stroke:#333;}#graph-div #arrowhead path{fill:#333;stroke:#333;}#graph-div .sequenceNumber{fill:white;}#graph-div #sequencenumber{fill:#333;}#graph-div #crosshead path{fill:#333;stroke:#333;}#graph-div .messageText{fill:#333;stroke:#333;}#graph-div .labelBox{stroke:hsl(259.6261682243, 59.7765363128%, 87.9019607843%);fill:#ECECFF;}#graph-div .labelText,#graph-div .labelText&gt;tspan{fill:black;stroke:none;}#graph-div .loopText,#graph-div .loopText&gt;tspan{fill:black;stroke:none;}#graph-div .loopLine{stroke-width:2px;stroke-dasharray:2,2;stroke:hsl(259.6261682243, 59.7765363128%, 87.9019607843%);fill:hsl(259.6261682243, 59.7765363128%, 87.9019607843%);}#graph-div .note{stroke:#aaaa33;fill:#fff5ad;}#graph-div .noteText,#graph-div .noteText&gt;tspan{fill:black;stroke:none;}#graph-div .activation0{fill:#f4f4f4;stroke:#666;}#graph-div .activation1{fill:#f4f4f4;stroke:#666;}#graph-div .activation2{fill:#f4f4f4;stroke:#666;}#graph-div .actorPopupMenu{position:absolute;}#graph-div .actorPopupMenuPanel{position:absolute;fill:#ECECFF;box-shadow:0px 8px 16px 0px rgba(0,0,0,0.2);filter:drop-shadow(3px 5px 2px rgb(0 0 0 / 0.4));}#graph-div .actor-man line{stroke:hsl(259.6261682243, 59.7765363128%, 87.9019607843%);fill:#ECECFF;}#graph-div .actor-man circle,#graph-div line{stroke:hsl(259.6261682243, 59.7765363128%, 87.9019607843%);fill:#ECECFF;stroke-width:2px;}#graph-div :root{--mermaid-font-family:"trebuchet ms",verdana,arial,sans-serif;}</style><g></g><defs><symbol height="24" width="24" id="computer"><path d="M2 2v13h20v-13h-20zm18 11h-16v-9h16v9zm-10.228 6l.466-1h3.524l.467 1h-4.457zm14.228 3h-24l2-6h2.104l-1.33 4h18.45l-1.297-4h2.073l2 6zm-5-10h-14v-7h14v7z" transform="scale(.5)"></path></symbol></defs><defs><symbol clip-rule="evenodd" fill-rule="evenodd" id="database"><path d="M12.258.001l.256.004.255.005.253.008.251.01.249.012.247.015.246.016.242.019.241.02.239.023.236.024.233.027.231.028.229.031.225.032.223.034.22.036.217.038.214.04.211.041.208.043.205.045.201.046.198.048.194.05.191.051.187.053.183.054.18.056.175.057.172.059.168.06.163.061.16.063.155.064.15.066.074.033.073.033.071.034.07.034.069.035.068.035.067.035.066.035.064.036.064.036.062.036.06.036.06.037.058.037.058.037.055.038.055.038.053.038.052.038.051.039.05.039.048.039.047.039.045.04.044.04.043.04.041.04.04.041.039.041.037.041.036.041.034.041.033.042.032.042.03.042.029.042.027.042.026.043.024.043.023.043.021.043.02.043.018.044.017.043.015.044.013.044.012.044.011.045.009.044.007.045.006.045.004.045.002.045.001.045v17l-.001.045-.002.045-.004.045-.006.045-.007.045-.009.044-.011.045-.012.044-.013.044-.015.044-.017.043-.018.044-.02.043-.021.043-.023.043-.024.043-.026.043-.027.042-.029.042-.03.042-.032.042-.033.042-.034.041-.036.041-.037.041-.039.041-.04.041-.041.04-.043.04-.044.04-.045.04-.047.039-.048.039-.05.039-.051.039-.052.038-.053.038-.055.038-.055.038-.058.037-.058.037-.06.037-.06.036-.062.036-.064.036-.064.036-.066.035-.067.035-.068.035-.069.035-.07.034-.071.034-.073.033-.074.033-.15.066-.155.064-.16.063-.163.061-.168.06-.172.059-.175.057-.18.056-.183.054-.187.053-.191.051-.194.05-.198.048-.201.046-.205.045-.208.043-.211.041-.214.04-.217.038-.22.036-.223.034-.225.032-.229.031-.231.028-.233.027-.236.024-.239.023-.241.02-.242.019-.246.016-.247.015-.249.012-.251.01-.253.008-.255.005-.256.004-.258.001-.258-.001-.256-.004-.255-.005-.253-.008-.251-.01-.249-.012-.247-.015-.245-.016-.243-.019-.241-.02-.238-.023-.236-.024-.234-.027-.231-.028-.228-.031-.226-.032-.223-.034-.22-.036-.217-.038-.214-.04-.211-.041-.208-.043-.204-.045-.201-.046-.198-.048-.195-.05-.19-.051-.187-.053-.184-.054-.179-.056-.176-.057-.172-.059-.167-.06-.164-.061-.159-.063-.155-.064-.151-.066-.074-.033-.072-.033-.072-.034-.07-.034-.069-.035-.068-.035-.067-.035-.066-.035-.064-.036-.063-.036-.062-.036-.061-.036-.06-.037-.058-.037-.057-.037-.056-.038-.055-.038-.053-.038-.052-.038-.051-.039-.049-.039-.049-.039-.046-.039-.046-.04-.044-.04-.043-.04-.041-.04-.04-.041-.039-.041-.037-.041-.036-.041-.034-.041-.033-.042-.032-.042-.03-.042-.029-.042-.027-.042-.026-.043-.024-.043-.023-.043-.021-.043-.02-.043-.018-.044-.017-.043-.015-.044-.013-.044-.012-.044-.011-.045-.009-.044-.007-.045-.006-.045-.004-.045-.002-.045-.001-.045v-17l.001-.045.002-.045.004-.045.006-.045.007-.045.009-.044.011-.045.012-.044.013-.044.015-.044.017-.043.018-.044.02-.043.021-.043.023-.043.024-.043.026-.043.027-.042.029-.042.03-.042.032-.042.033-.042.034-.041.036-.041.037-.041.039-.041.04-.041.041-.04.043-.04.044-.04.046-.04.046-.039.049-.039.049-.039.051-.039.052-.038.053-.038.055-.038.056-.038.057-.037.058-.037.06-.037.061-.036.062-.036.063-.036.064-.036.066-.035.067-.035.068-.035.069-.035.07-.034.072-.034.072-.033.074-.033.151-.066.155-.064.159-.063.164-.061.167-.06.172-.059.176-.057.179-.056.184-.054.187-.053.19-.051.195-.05.198-.048.201-.046.204-.045.208-.043.211-.041.214-.04.217-.038.22-.036.223-.034.226-.032.228-.031.231-.028.234-.027.236-.024.238-.023.241-.02.243-.019.245-.016.247-.015.249-.012.251-.01.253-.008.255-.005.256-.004.258-.001.258.001zm-9.258 20.499v.01l.001.021.003.021.004.022.005.021.006.022.007.022.009.023.01.022.011.023.012.023.013.023.015.023.016.024.017.023.018.024.019.024.021.024.022.025.023.024.024.025.052.049.056.05.061.051.066.051.07.051.075.051.079.052.084.052.088.052.092.052.097.052.102.051.105.052.11.052.114.051.119.051.123.051.127.05.131.05.135.05.139.048.144.049.147.047.152.047.155.047.16.045.163.045.167.043.171.043.176.041.178.041.183.039.187.039.19.037.194.035.197.035.202.033.204.031.209.03.212.029.216.027.219.025.222.024.226.021.23.02.233.018.236.016.24.015.243.012.246.01.249.008.253.005.256.004.259.001.26-.001.257-.004.254-.005.25-.008.247-.011.244-.012.241-.014.237-.016.233-.018.231-.021.226-.021.224-.024.22-.026.216-.027.212-.028.21-.031.205-.031.202-.034.198-.034.194-.036.191-.037.187-.039.183-.04.179-.04.175-.042.172-.043.168-.044.163-.045.16-.046.155-.046.152-.047.148-.048.143-.049.139-.049.136-.05.131-.05.126-.05.123-.051.118-.052.114-.051.11-.052.106-.052.101-.052.096-.052.092-.052.088-.053.083-.051.079-.052.074-.052.07-.051.065-.051.06-.051.056-.05.051-.05.023-.024.023-.025.021-.024.02-.024.019-.024.018-.024.017-.024.015-.023.014-.024.013-.023.012-.023.01-.023.01-.022.008-.022.006-.022.006-.022.004-.022.004-.021.001-.021.001-.021v-4.127l-.077.055-.08.053-.083.054-.085.053-.087.052-.09.052-.093.051-.095.05-.097.05-.1.049-.102.049-.105.048-.106.047-.109.047-.111.046-.114.045-.115.045-.118.044-.12.043-.122.042-.124.042-.126.041-.128.04-.13.04-.132.038-.134.038-.135.037-.138.037-.139.035-.142.035-.143.034-.144.033-.147.032-.148.031-.15.03-.151.03-.153.029-.154.027-.156.027-.158.026-.159.025-.161.024-.162.023-.163.022-.165.021-.166.02-.167.019-.169.018-.169.017-.171.016-.173.015-.173.014-.175.013-.175.012-.177.011-.178.01-.179.008-.179.008-.181.006-.182.005-.182.004-.184.003-.184.002h-.37l-.184-.002-.184-.003-.182-.004-.182-.005-.181-.006-.179-.008-.179-.008-.178-.01-.176-.011-.176-.012-.175-.013-.173-.014-.172-.015-.171-.016-.17-.017-.169-.018-.167-.019-.166-.02-.165-.021-.163-.022-.162-.023-.161-.024-.159-.025-.157-.026-.156-.027-.155-.027-.153-.029-.151-.03-.15-.03-.148-.031-.146-.032-.145-.033-.143-.034-.141-.035-.14-.035-.137-.037-.136-.037-.134-.038-.132-.038-.13-.04-.128-.04-.126-.041-.124-.042-.122-.042-.12-.044-.117-.043-.116-.045-.113-.045-.112-.046-.109-.047-.106-.047-.105-.048-.102-.049-.1-.049-.097-.05-.095-.05-.093-.052-.09-.051-.087-.052-.085-.053-.083-.054-.08-.054-.077-.054v4.127zm0-5.654v.011l.001.021.003.021.004.021.005.022.006.022.007.022.009.022.01.022.011.023.012.023.013.023.015.024.016.023.017.024.018.024.019.024.021.024.022.024.023.025.024.024.052.05.056.05.061.05.066.051.07.051.075.052.079.051.084.052.088.052.092.052.097.052.102.052.105.052.11.051.114.051.119.052.123.05.127.051.131.05.135.049.139.049.144.048.147.048.152.047.155.046.16.045.163.045.167.044.171.042.176.042.178.04.183.04.187.038.19.037.194.036.197.034.202.033.204.032.209.03.212.028.216.027.219.025.222.024.226.022.23.02.233.018.236.016.24.014.243.012.246.01.249.008.253.006.256.003.259.001.26-.001.257-.003.254-.006.25-.008.247-.01.244-.012.241-.015.237-.016.233-.018.231-.02.226-.022.224-.024.22-.025.216-.027.212-.029.21-.03.205-.032.202-.033.198-.035.194-.036.191-.037.187-.039.183-.039.179-.041.175-.042.172-.043.168-.044.163-.045.16-.045.155-.047.152-.047.148-.048.143-.048.139-.05.136-.049.131-.05.126-.051.123-.051.118-.051.114-.052.11-.052.106-.052.101-.052.096-.052.092-.052.088-.052.083-.052.079-.052.074-.051.07-.052.065-.051.06-.05.056-.051.051-.049.023-.025.023-.024.021-.025.02-.024.019-.024.018-.024.017-.024.015-.023.014-.023.013-.024.012-.022.01-.023.01-.023.008-.022.006-.022.006-.022.004-.021.004-.022.001-.021.001-.021v-4.139l-.077.054-.08.054-.083.054-.085.052-.087.053-.09.051-.093.051-.095.051-.097.05-.1.049-.102.049-.105.048-.106.047-.109.047-.111.046-.114.045-.115.044-.118.044-.12.044-.122.042-.124.042-.126.041-.128.04-.13.039-.132.039-.134.038-.135.037-.138.036-.139.036-.142.035-.143.033-.144.033-.147.033-.148.031-.15.03-.151.03-.153.028-.154.028-.156.027-.158.026-.159.025-.161.024-.162.023-.163.022-.165.021-.166.02-.167.019-.169.018-.169.017-.171.016-.173.015-.173.014-.175.013-.175.012-.177.011-.178.009-.179.009-.179.007-.181.007-.182.005-.182.004-.184.003-.184.002h-.37l-.184-.002-.184-.003-.182-.004-.182-.005-.181-.007-.179-.007-.179-.009-.178-.009-.176-.011-.176-.012-.175-.013-.173-.014-.172-.015-.171-.016-.17-.017-.169-.018-.167-.019-.166-.02-.165-.021-.163-.022-.162-.023-.161-.024-.159-.025-.157-.026-.156-.027-.155-.028-.153-.028-.151-.03-.15-.03-.148-.031-.146-.033-.145-.033-.143-.033-.141-.035-.14-.036-.137-.036-.136-.037-.134-.038-.132-.039-.13-.039-.128-.04-.126-.041-.124-.042-.122-.043-.12-.043-.117-.044-.116-.044-.113-.046-.112-.046-.109-.046-.106-.047-.105-.048-.102-.049-.1-.049-.097-.05-.095-.051-.093-.051-.09-.051-.087-.053-.085-.052-.083-.054-.08-.054-.077-.054v4.139zm0-5.666v.011l.001.02.003.022.004.021.005.022.006.021.007.022.009.023.01.022.011.023.012.023.013.023.015.023.016.024.017.024.018.023.019.024.021.025.022.024.023.024.024.025.052.05.056.05.061.05.066.051.07.051.075.052.079.051.084.052.088.052.092.052.097.052.102.052.105.051.11.052.114.051.119.051.123.051.127.05.131.05.135.05.139.049.144.048.147.048.152.047.155.046.16.045.163.045.167.043.171.043.176.042.178.04.183.04.187.038.19.037.194.036.197.034.202.033.204.032.209.03.212.028.216.027.219.025.222.024.226.021.23.02.233.018.236.017.24.014.243.012.246.01.249.008.253.006.256.003.259.001.26-.001.257-.003.254-.006.25-.008.247-.01.244-.013.241-.014.237-.016.233-.018.231-.02.226-.022.224-.024.22-.025.216-.027.212-.029.21-.03.205-.032.202-.033.198-.035.194-.036.191-.037.187-.039.183-.039.179-.041.175-.042.172-.043.168-.044.163-.045.16-.045.155-.047.152-.047.148-.048.143-.049.139-.049.136-.049.131-.051.126-.05.123-.051.118-.052.114-.051.11-.052.106-.052.101-.052.096-.052.092-.052.088-.052.083-.052.079-.052.074-.052.07-.051.065-.051.06-.051.056-.05.051-.049.023-.025.023-.025.021-.024.02-.024.019-.024.018-.024.017-.024.015-.023.014-.024.013-.023.012-.023.01-.022.01-.023.008-.022.006-.022.006-.022.004-.022.004-.021.001-.021.001-.021v-4.153l-.077.054-.08.054-.083.053-.085.053-.087.053-.09.051-.093.051-.095.051-.097.05-.1.049-.102.048-.105.048-.106.048-.109.046-.111.046-.114.046-.115.044-.118.044-.12.043-.122.043-.124.042-.126.041-.128.04-.13.039-.132.039-.134.038-.135.037-.138.036-.139.036-.142.034-.143.034-.144.033-.147.032-.148.032-.15.03-.151.03-.153.028-.154.028-.156.027-.158.026-.159.024-.161.024-.162.023-.163.023-.165.021-.166.02-.167.019-.169.018-.169.017-.171.016-.173.015-.173.014-.175.013-.175.012-.177.01-.178.01-.179.009-.179.007-.181.006-.182.006-.182.004-.184.003-.184.001-.185.001-.185-.001-.184-.001-.184-.003-.182-.004-.182-.006-.181-.006-.179-.007-.179-.009-.178-.01-.176-.01-.176-.012-.175-.013-.173-.014-.172-.015-.171-.016-.17-.017-.169-.018-.167-.019-.166-.02-.165-.021-.163-.023-.162-.023-.161-.024-.159-.024-.157-.026-.156-.027-.155-.028-.153-.028-.151-.03-.15-.03-.148-.032-.146-.032-.145-.033-.143-.034-.141-.034-.14-.036-.137-.036-.136-.037-.134-.038-.132-.039-.13-.039-.128-.041-.126-.041-.124-.041-.122-.043-.12-.043-.117-.044-.116-.044-.113-.046-.112-.046-.109-.046-.106-.048-.105-.048-.102-.048-.1-.05-.097-.049-.095-.051-.093-.051-.09-.052-.087-.052-.085-.053-.083-.053-.08-.054-.077-.054v4.153zm8.74-8.179l-.257.004-.254.005-.25.008-.247.011-.244.012-.241.014-.237.016-.233.018-.231.021-.226.022-.224.023-.22.026-.216.027-.212.028-.21.031-.205.032-.202.033-.198.034-.194.036-.191.038-.187.038-.183.04-.179.041-.175.042-.172.043-.168.043-.163.045-.16.046-.155.046-.152.048-.148.048-.143.048-.139.049-.136.05-.131.05-.126.051-.123.051-.118.051-.114.052-.11.052-.106.052-.101.052-.096.052-.092.052-.088.052-.083.052-.079.052-.074.051-.07.052-.065.051-.06.05-.056.05-.051.05-.023.025-.023.024-.021.024-.02.025-.019.024-.018.024-.017.023-.015.024-.014.023-.013.023-.012.023-.01.023-.01.022-.008.022-.006.023-.006.021-.004.022-.004.021-.001.021-.001.021.001.021.001.021.004.021.004.022.006.021.006.023.008.022.01.022.01.023.012.023.013.023.014.023.015.024.017.023.018.024.019.024.02.025.021.024.023.024.023.025.051.05.056.05.06.05.065.051.07.052.074.051.079.052.083.052.088.052.092.052.096.052.101.052.106.052.11.052.114.052.118.051.123.051.126.051.131.05.136.05.139.049.143.048.148.048.152.048.155.046.16.046.163.045.168.043.172.043.175.042.179.041.183.04.187.038.191.038.194.036.198.034.202.033.205.032.21.031.212.028.216.027.22.026.224.023.226.022.231.021.233.018.237.016.241.014.244.012.247.011.25.008.254.005.257.004.26.001.26-.001.257-.004.254-.005.25-.008.247-.011.244-.012.241-.014.237-.016.233-.018.231-.021.226-.022.224-.023.22-.026.216-.027.212-.028.21-.031.205-.032.202-.033.198-.034.194-.036.191-.038.187-.038.183-.04.179-.041.175-.042.172-.043.168-.043.163-.045.16-.046.155-.046.152-.048.148-.048.143-.048.139-.049.136-.05.131-.05.126-.051.123-.051.118-.051.114-.052.11-.052.106-.052.101-.052.096-.052.092-.052.088-.052.083-.052.079-.052.074-.051.07-.052.065-.051.06-.05.056-.05.051-.05.023-.025.023-.024.021-.024.02-.025.019-.024.018-.024.017-.023.015-.024.014-.023.013-.023.012-.023.01-.023.01-.022.008-.022.006-.023.006-.021.004-.022.004-.021.001-.021.001-.021-.001-.021-.001-.021-.004-.021-.004-.022-.006-.021-.006-.023-.008-.022-.01-.022-.01-.023-.012-.023-.013-.023-.014-.023-.015-.024-.017-.023-.018-.024-.019-.024-.02-.025-.021-.024-.023-.024-.023-.025-.051-.05-.056-.05-.06-.05-.065-.051-.07-.052-.074-.051-.079-.052-.083-.052-.088-.052-.092-.052-.096-.052-.101-.052-.106-.052-.11-.052-.114-.052-.118-.051-.123-.051-.126-.051-.131-.05-.136-.05-.139-.049-.143-.048-.148-.048-.152-.048-.155-.046-.16-.046-.163-.045-.168-.043-.172-.043-.175-.042-.179-.041-.183-.04-.187-.038-.191-.038-.194-.036-.198-.034-.202-.033-.205-.032-.21-.031-.212-.028-.216-.027-.22-.026-.224-.023-.226-.022-.231-.021-.233-.018-.237-.016-.241-.014-.244-.012-.247-.011-.25-.008-.254-.005-.257-.004-.26-.001-.26.001z" transform="scale(.5)"></path></symbol></defs><defs><symbol height="24" width="24" id="clock"><path d="M12 2c5.514 0 10 4.486 10 10s-4.486 10-10 10-10-4.486-10-10 4.486-10 10-10zm0-2c-6.627 0-12 5.373-12 12s5.373 12 12 12 12-5.373 12-12-5.373-12-12-12zm5.848 12.459c.202.038.202.333.001.372-1.907.361-6.045 1.111-6.547 1.111-.719 0-1.301-.582-1.301-1.301 0-.512.77-5.447 1.125-7.445.034-.192.312-.181.343.014l.985 6.238 5.394 1.011z" transform="scale(.5)"></path></symbol></defs><g><line stroke="#999" stroke-width="0.5px" class="200" y2="1821" x2="75" y1="5" x1="75" id="actor204"></line><g id="root-204"><rect class="actor" ry="3" rx="3" height="65" width="150" stroke="#666" fill="#eaeaea" y="0" x="0"></rect><text style="text-anchor: middle; font-size: 14px; font-weight: 400;" class="actor" alignment-baseline="central" dominant-baseline="central" y="32.5" x="75"><tspan dy="0" x="75">Client</tspan></text></g></g><g><line stroke="#999" stroke-width="0.5px" class="200" y2="1821" x2="360" y1="5" x1="360" id="actor205"></line><g id="root-205"><rect class="actor" ry="3" rx="3" height="65" width="150" stroke="#666" fill="#eaeaea" y="0" x="285"></rect><text style="text-anchor: middle; font-size: 14px; font-weight: 400;" class="actor" alignment-baseline="central" dominant-baseline="central" y="32.5" x="360"><tspan dy="0" x="360">LiveViewServer</tspan></text></g></g><defs><marker orient="auto" markerHeight="12" markerWidth="12" markerUnits="userSpaceOnUse" refY="5" refX="9" id="arrowhead"><path d="M 0 0 L 10 5 L 0 10 z"></path></marker></defs><defs><marker refY="4" refX="16" orient="auto" markerHeight="8" markerWidth="15" id="crosshead"><path style="stroke-dasharray: 0, 0;" d="M 9,2 V 6 L16,4 Z" stroke-width="1px" stroke="#000000" fill="black"></path><path style="stroke-dasharray: 0, 0;" d="M 0,1 L 6,7 M 6,1 L 0,7" stroke-width="1px" stroke="#000000" fill="none"></path></marker></defs><defs><marker orient="auto" markerHeight="28" markerWidth="20" refY="7" refX="18" id="filled-head"><path d="M 18,7 L9,13 L14,7 L9,1 Z"></path></marker></defs><defs><marker orient="auto" markerHeight="40" markerWidth="60" refY="15" refX="15" id="sequencenumber"><circle r="6" cy="15" cx="15"></circle></marker></defs><g><rect class="note" ry="0" rx="0" height="36" width="335" stroke="#666" fill="#EDF2AE" y="75" x="50"></rect><text style="font-size: 14px; font-weight: 400;" dy="1em" class="noteText" alignment-baseline="middle" dominant-baseline="middle" text-anchor="middle" y="80" x="218"><tspan x="218">Initial Request</tspan></text></g><g><rect class="activation0" ry="0" rx="0" height="48" width="10" stroke="#666" fill="#EDF2AE" y="159" x="355"></rect></g><g><rect class="note" ry="0" rx="0" height="52" width="301" stroke="#666" fill="#EDF2AE" y="217" x="-251"></rect><text style="font-size: 14px; font-weight: 400;" dy="1em" class="noteText" alignment-baseline="middle" dominant-baseline="middle" text-anchor="middle" y="222" x="-100"><tspan x="-100">"First paint" is extremely fast</tspan></text><text style="font-size: 14px; font-weight: 400;" dy="1em" class="noteText" alignment-baseline="middle" dominant-baseline="middle" text-anchor="middle" y="238" x="-100"><tspan x="-100"> (Only sending HTML not MBs of Javascript)</tspan></text></g><g><rect class="note" ry="0" rx="0" height="36" width="335" stroke="#666" fill="#EDF2AE" y="279" x="50"></rect><text style="font-size: 14px; font-weight: 400;" dy="1em" class="noteText" alignment-baseline="middle" dominant-baseline="middle" text-anchor="middle" y="284" x="218"><tspan x="218">Websocket Session</tspan></text></g><g><rect class="activation0" ry="0" rx="0" height="1418" width="10" stroke="#666" fill="#EDF2AE" y="363" x="355"></rect></g><g><rect class="activation1" ry="0" rx="0" height="46" width="10" stroke="#666" fill="#EDF2AE" y="365" x="360"></rect></g><g><rect class="note" ry="0" rx="0" height="68" width="315" stroke="#666" fill="#EDF2AE" y="421" x="-265"></rect><text style="font-size: 14px; font-weight: 400;" dy="1em" class="noteText" alignment-baseline="middle" dominant-baseline="middle" text-anchor="middle" y="426" x="-107"><tspan x="-107">DOM Patch is a diff between</tspan></text><text style="font-size: 14px; font-weight: 400;" dy="1em" class="noteText" alignment-baseline="middle" dominant-baseline="middle" text-anchor="middle" y="442" x="-107"><tspan x="-107"> current HTML and updated HTML</tspan></text><text style="font-size: 14px; font-weight: 400;" dy="1em" class="noteText" alignment-baseline="middle" dominant-baseline="middle" text-anchor="middle" y="458" x="-107"><tspan x="-107">(These diffs are extremely small and efficient)</tspan></text></g><g><rect class="note" ry="0" rx="0" height="52" width="335" stroke="#666" fill="#EDF2AE" y="499" x="50"></rect><text style="font-size: 14px; font-weight: 400;" dy="1em" class="noteText" alignment-baseline="middle" dominant-baseline="middle" text-anchor="middle" y="504" x="218"><tspan x="218">Subsequent User Events are</tspan></text><text style="font-size: 14px; font-weight: 400;" dy="1em" class="noteText" alignment-baseline="middle" dominant-baseline="middle" text-anchor="middle" y="520" x="218"><tspan x="218"> sent over Websocket</tspan></text></g><g><rect class="activation1" ry="0" rx="0" height="46" width="10" stroke="#666" fill="#EDF2AE" y="646" x="360"></rect></g><g><line class="loopLine" y2="561" x2="380" y1="561" x1="65"></line><line class="loopLine" y2="702" x2="380" y1="561" x1="380"></line><line class="loopLine" y2="702" x2="380" y1="702" x1="65"></line><line class="loopLine" y2="702" x2="65" y1="561" x1="65"></line><polygon class="labelBox" points="65,561 115,561 115,574 106.6,581 65,581"></polygon><text style="font-size: 16px; font-weight: 400;" class="labelText" alignment-baseline="middle" dominant-baseline="middle" text-anchor="middle" y="574" x="90">opt</text><text style="font-size: 16px; font-weight: 400;" class="loopText" text-anchor="middle" y="579" x="247.5"><tspan x="247.5">[Click Events]</tspan></text></g><g><rect class="activation1" ry="0" rx="0" height="46" width="10" stroke="#666" fill="#EDF2AE" y="797" x="360"></rect></g><g><line class="loopLine" y2="712" x2="380" y1="712" x1="65"></line><line class="loopLine" y2="853" x2="380" y1="712" x1="380"></line><line class="loopLine" y2="853" x2="380" y1="853" x1="65"></line><line class="loopLine" y2="853" x2="65" y1="712" x1="65"></line><polygon class="labelBox" points="65,712 115,712 115,725 106.6,732 65,732"></polygon><text style="font-size: 16px; font-weight: 400;" class="labelText" alignment-baseline="middle" dominant-baseline="middle" text-anchor="middle" y="725" x="90">opt</text><text style="font-size: 16px; font-weight: 400;" class="loopText" text-anchor="middle" y="730" x="247.5"><tspan x="247.5">[Form Change Events]</tspan></text></g><g><rect class="activation1" ry="0" rx="0" height="46" width="10" stroke="#666" fill="#EDF2AE" y="948" x="360"></rect></g><g><line class="loopLine" y2="863" x2="380" y1="863" x1="65"></line><line class="loopLine" y2="1004" x2="380" y1="863" x1="380"></line><line class="loopLine" y2="1004" x2="380" y1="1004" x1="65"></line><line class="loopLine" y2="1004" x2="65" y1="863" x1="65"></line><polygon class="labelBox" points="65,863 115,863 115,876 106.6,883 65,883"></polygon><text style="font-size: 16px; font-weight: 400;" class="labelText" alignment-baseline="middle" dominant-baseline="middle" text-anchor="middle" y="876" x="90">opt</text><text style="font-size: 16px; font-weight: 400;" class="loopText" text-anchor="middle" y="881" x="247.5"><tspan x="247.5">[Blur/Focus Events]</tspan></text></g><g><rect class="activation1" ry="0" rx="0" height="46" width="10" stroke="#666" fill="#EDF2AE" y="1099" x="360"></rect></g><g><line class="loopLine" y2="1014" x2="380" y1="1014" x1="65"></line><line class="loopLine" y2="1155" x2="380" y1="1014" x1="380"></line><line class="loopLine" y2="1155" x2="380" y1="1155" x1="65"></line><line class="loopLine" y2="1155" x2="65" y1="1014" x1="65"></line><polygon class="labelBox" points="65,1014 115,1014 115,1027 106.6,1034 65,1034"></polygon><text style="font-size: 16px; font-weight: 400;" class="labelText" alignment-baseline="middle" dominant-baseline="middle" text-anchor="middle" y="1027" x="90">opt</text><text style="font-size: 16px; font-weight: 400;" class="loopText" text-anchor="middle" y="1032" x="247.5"><tspan x="247.5">[Key Events]</tspan></text></g><g><rect class="note" ry="0" rx="0" height="68" width="362" stroke="#666" fill="#EDF2AE" y="1165" x="-312"></rect><text style="font-size: 14px; font-weight: 400;" dy="1em" class="noteText" alignment-baseline="middle" dominant-baseline="middle" text-anchor="middle" y="1170" x="-131"><tspan x="-131">Event's are sent over Websocket</tspan></text><text style="font-size: 14px; font-weight: 400;" dy="1em" class="noteText" alignment-baseline="middle" dominant-baseline="middle" text-anchor="middle" y="1186" x="-131"><tspan x="-131">, the server runs the business logic,</tspan></text><text style="font-size: 14px; font-weight: 400;" dy="1em" class="noteText" alignment-baseline="middle" dominant-baseline="middle" text-anchor="middle" y="1202" x="-131"><tspan x="-131"> calculates the diff then sends them back to the client</tspan></text></g><g><rect class="note" ry="0" rx="0" height="36" width="335" stroke="#666" fill="#EDF2AE" y="1243" x="50"></rect><text style="font-size: 14px; font-weight: 400;" dy="1em" class="noteText" alignment-baseline="middle" dominant-baseline="middle" text-anchor="middle" y="1248" x="218"><tspan x="218">Server Event spawns update</tspan></text></g><g><rect class="activation1" ry="0" rx="0" height="46" width="10" stroke="#666" fill="#EDF2AE" y="1404" x="360"></rect></g><g><line class="loopLine" y2="1289" x2="450" y1="1289" x1="65"></line><line class="loopLine" y2="1460" x2="450" y1="1289" x1="450"></line><line class="loopLine" y2="1460" x2="450" y1="1460" x1="65"></line><line class="loopLine" y2="1460" x2="65" y1="1289" x1="65"></line><polygon class="labelBox" points="65,1289 115,1289 115,1302 106.6,1309 65,1309"></polygon><text style="font-size: 16px; font-weight: 400;" class="labelText" alignment-baseline="middle" dominant-baseline="middle" text-anchor="middle" y="1302" x="90">opt</text><text style="font-size: 16px; font-weight: 400;" class="loopText" text-anchor="middle" y="1307" x="282.5"><tspan x="282.5">[PushPatch]</tspan></text></g><g><rect class="note" ry="0" rx="0" height="52" width="371" stroke="#666" fill="#EDF2AE" y="1470" x="-321"></rect><text style="font-size: 14px; font-weight: 400;" dy="1em" class="noteText" alignment-baseline="middle" dominant-baseline="middle" text-anchor="middle" y="1475" x="-135"><tspan x="-135">Server can initiate updates for server events, Pub/Sub,</tspan></text><text style="font-size: 14px; font-weight: 400;" dy="1em" class="noteText" alignment-baseline="middle" dominant-baseline="middle" text-anchor="middle" y="1491" x="-135"><tspan x="-135"> and/or updates from other clients</tspan></text></g><g><rect class="note" ry="0" rx="0" height="36" width="335" stroke="#666" fill="#EDF2AE" y="1532" x="50"></rect><text style="font-size: 14px; font-weight: 400;" dy="1em" class="noteText" alignment-baseline="middle" dominant-baseline="middle" text-anchor="middle" y="1537" x="218"><tspan x="218">Automatic Health Checks</tspan></text></g><g><rect class="activation1" ry="0" rx="0" height="46" width="10" stroke="#666" fill="#EDF2AE" y="1663" x="360"></rect></g><g><line class="loopLine" y2="1578" x2="380" y1="1578" x1="65"></line><line class="loopLine" y2="1719" x2="380" y1="1578" x1="380"></line><line class="loopLine" y2="1719" x2="380" y1="1719" x1="65"></line><line class="loopLine" y2="1719" x2="65" y1="1578" x1="65"></line><polygon class="labelBox" points="65,1578 115,1578 115,1591 106.6,1598 65,1598"></polygon><text style="font-size: 16px; font-weight: 400;" class="labelText" alignment-baseline="middle" dominant-baseline="middle" text-anchor="middle" y="1591" x="90">loop</text><text style="font-size: 16px; font-weight: 400;" class="loopText" text-anchor="middle" y="1596" x="247.5"><tspan x="247.5">[Heartbeat]</tspan></text></g><g><rect class="note" ry="0" rx="0" height="52" width="276" stroke="#666" fill="#EDF2AE" y="1729" x="-226"></rect><text style="font-size: 14px; font-weight: 400;" dy="1em" class="noteText" alignment-baseline="middle" dominant-baseline="middle" text-anchor="middle" y="1734" x="-88"><tspan x="-88">Health checks are automatic with</tspan></text><text style="font-size: 14px; font-weight: 400;" dy="1em" class="noteText" alignment-baseline="middle" dominant-baseline="middle" text-anchor="middle" y="1750" x="-88"><tspan x="-88"> auto-rejoin attempted if connection lost</tspan></text></g><text style="font-size: 16px; font-weight: 400;" dy="1em" class="messageText" alignment-baseline="middle" dominant-baseline="middle" text-anchor="middle" y="126" x="218">HTTP Request</text><line style="fill: none;" marker-end="url(#arrowhead)" stroke="none" stroke-width="2" class="messageLine0" y2="159" x2="360" y1="159" x1="75"></line><text style="font-size: 16px; font-weight: 400;" dy="1em" class="messageText" alignment-baseline="middle" dominant-baseline="middle" text-anchor="middle" y="174" x="215">HTTP Response</text><line style="fill: none;" marker-end="url(#arrowhead)" stroke="none" stroke-width="2" class="messageLine0" y2="207" x2="75" y1="207" x1="355"></line><text style="font-size: 16px; font-weight: 400;" dy="1em" class="messageText" alignment-baseline="middle" dominant-baseline="middle" text-anchor="middle" y="330" x="218">Websocket Connect</text><line style="fill: none;" marker-end="url(#arrowhead)" stroke="none" stroke-width="2" class="messageLine0" y2="363" x2="360" y1="363" x1="75"></line><text style="font-size: 16px; font-weight: 400;" dy="1em" class="messageText" alignment-baseline="middle" dominant-baseline="middle" text-anchor="middle" y="378" x="215">DOM Patch</text><line style="fill: none;" marker-end="url(#arrowhead)" stroke="none" stroke-width="2" class="messageLine0" y2="411" x2="75" y1="411" x1="355"></line><text style="font-size: 16px; font-weight: 400;" dy="1em" class="messageText" alignment-baseline="middle" dominant-baseline="middle" text-anchor="middle" y="611" x="215">phx-click, phx-click-away, etc</text><line style="fill: none;" marker-end="url(#arrowhead)" stroke="none" stroke-width="2" class="messageLine0" y2="644" x2="355" y1="644" x1="75"></line><text style="font-size: 16px; font-weight: 400;" dy="1em" class="messageText" alignment-baseline="middle" dominant-baseline="middle" text-anchor="middle" y="659" x="215">DOM Patch</text><line style="fill: none;" marker-end="url(#arrowhead)" stroke="none" stroke-width="2" class="messageLine0" y2="692" x2="75" y1="692" x1="355"></line><text style="font-size: 16px; font-weight: 400;" dy="1em" class="messageText" alignment-baseline="middle" dominant-baseline="middle" text-anchor="middle" y="762" x="215">phx-change, phx-submit</text><line style="fill: none;" marker-end="url(#arrowhead)" stroke="none" stroke-width="2" class="messageLine0" y2="795" x2="355" y1="795" x1="75"></line><text style="font-size: 16px; font-weight: 400;" dy="1em" class="messageText" alignment-baseline="middle" dominant-baseline="middle" text-anchor="middle" y="810" x="215">DOM Patch</text><line style="fill: none;" marker-end="url(#arrowhead)" stroke="none" stroke-width="2" class="messageLine0" y2="843" x2="75" y1="843" x1="355"></line><text style="font-size: 16px; font-weight: 400;" dy="1em" class="messageText" alignment-baseline="middle" dominant-baseline="middle" text-anchor="middle" y="913" x="215">phx-blur, phx-focus, etc</text><line style="fill: none;" marker-end="url(#arrowhead)" stroke="none" stroke-width="2" class="messageLine0" y2="946" x2="355" y1="946" x1="75"></line><text style="font-size: 16px; font-weight: 400;" dy="1em" class="messageText" alignment-baseline="middle" dominant-baseline="middle" text-anchor="middle" y="961" x="215">DOM Patch</text><line style="fill: none;" marker-end="url(#arrowhead)" stroke="none" stroke-width="2" class="messageLine0" y2="994" x2="75" y1="994" x1="355"></line><text style="font-size: 16px; font-weight: 400;" dy="1em" class="messageText" alignment-baseline="middle" dominant-baseline="middle" text-anchor="middle" y="1064" x="215">phx-keydown, phx-keyup, etc</text><line style="fill: none;" marker-end="url(#arrowhead)" stroke="none" stroke-width="2" class="messageLine0" y2="1097" x2="355" y1="1097" x1="75"></line><text style="font-size: 16px; font-weight: 400;" dy="1em" class="messageText" alignment-baseline="middle" dominant-baseline="middle" text-anchor="middle" y="1112" x="215">DOM Patch</text><line style="fill: none;" marker-end="url(#arrowhead)" stroke="none" stroke-width="2" class="messageLine0" y2="1145" x2="75" y1="1145" x1="355"></line><text style="font-size: 16px; font-weight: 400;" dy="1em" class="messageText" alignment-baseline="middle" dominant-baseline="middle" text-anchor="middle" y="1339" x="365">Server-side Event</text><path style="fill: none;" marker-end="url(#arrowhead)" stroke="none" stroke-width="2" class="messageLine0" d="M 365,1372 C 425,1362 425,1402 365,1392"></path><text style="font-size: 16px; font-weight: 400;" dy="1em" class="messageText" alignment-baseline="middle" dominant-baseline="middle" text-anchor="middle" y="1417" x="215">DOM Patch</text><line style="fill: none;" marker-end="url(#arrowhead)" stroke="none" stroke-width="2" class="messageLine0" y2="1450" x2="75" y1="1450" x1="355"></line><text style="font-size: 16px; font-weight: 400;" dy="1em" class="messageText" alignment-baseline="middle" dominant-baseline="middle" text-anchor="middle" y="1628" x="215">Heartbeat Ping (30 sec)</text><line style="fill: none;" marker-end="url(#arrowhead)" stroke="none" stroke-width="2" class="messageLine0" y2="1661" x2="355" y1="1661" x1="75"></line><text style="font-size: 16px; font-weight: 400;" dy="1em" class="messageText" alignment-baseline="middle" dominant-baseline="middle" text-anchor="middle" y="1676" x="215">Heartbeat ACK</text><line style="fill: none;" marker-end="url(#arrowhead)" stroke="none" stroke-width="2" class="messageLine0" y2="1709" x2="75" y1="1709" x1="355"></line><g><rect class="actor" ry="3" rx="3" height="65" width="150" stroke="#666" fill="#eaeaea" y="1801" x="0"></rect><text style="text-anchor: middle; font-size: 14px; font-weight: 400;" class="actor" alignment-baseline="central" dominant-baseline="central" y="1833.5" x="75"><tspan dy="0" x="75">Client</tspan></text></g><g><rect class="actor" ry="3" rx="3" height="65" width="150" stroke="#666" fill="#eaeaea" y="1801" x="285"></rect><text style="text-anchor: middle; font-size: 14px; font-weight: 400;" class="actor" alignment-baseline="central" dominant-baseline="central" y="1833.5" x="360"><tspan dy="0" x="360">LiveViewServer</tspan></text></g></svg>
